<?xml version="1.0" encoding="UTF-8"?>
<svg version="1.1" xmlns="http://www.w3.org/2000/svg" width="256" height="256">
<path d="M0 0 C0.70787659 0.00215515 1.41575317 0.0043103 2.14508057 0.00653076 C12.46529218 0.05697852 22.25394223 0.42670066 32.25 3.3125 C32.93562012 3.50054199 33.62124023 3.68858398 34.32763672 3.88232422 C66.24302637 12.7874618 94.29166395 33.76940847 111.25 62.3125 C122.85133123 83.16914231 128.69340173 104.17188366 128.5625 128.0625 C128.56034485 128.77037659 128.5581897 129.47825317 128.55596924 130.20758057 C128.50552148 140.52779218 128.13579934 150.31644223 125.25 160.3125 C125.06195801 160.99812012 124.87391602 161.68374023 124.68017578 162.39013672 C115.7750382 194.30552637 94.79309153 222.35416395 66.25 239.3125 C45.39335769 250.91383123 24.39061634 256.75590173 0.5 256.625 C-0.20787659 256.62284485 -0.91575317 256.6206897 -1.64508057 256.61846924 C-11.96529218 256.56802148 -21.75394223 256.19829934 -31.75 253.3125 C-32.43562012 253.12445801 -33.12124023 252.93641602 -33.82763672 252.74267578 C-65.74302637 243.8375382 -93.79166395 222.85559153 -110.75 194.3125 C-122.35133123 173.45585769 -128.19340173 152.45311634 -128.0625 128.5625 C-128.06034485 127.85462341 -128.0581897 127.14674683 -128.05596924 126.41741943 C-128.00552148 116.09720782 -127.63579934 106.30855777 -124.75 96.3125 C-124.46793701 95.28406982 -124.46793701 95.28406982 -124.18017578 94.23486328 C-115.2750382 62.31947363 -94.29309153 34.27083605 -65.75 17.3125 C-44.89335769 5.71116877 -23.89061634 -0.13090173 0 0 Z " fill="#967ADC" transform="translate(127.75,-0.3125)"/>
<path d="M0 0 C14.09961132 9.0657005 20.49827845 22.9341534 24.13549805 38.7956543 C26.05219362 48.01536708 26.89820249 57.23784201 27.17578125 66.64453125 C27.23612549 67.75207764 27.29646973 68.85962402 27.35864258 70.00073242 C27.38270903 73.15829968 27.29730799 75.68778196 26.36328125 78.70703125 C24.21856666 80.84410965 22.18989004 82.15309909 19.50488281 83.5378418 C17.0827248 84.65918385 17.0827248 84.65918385 15.30078125 87.58203125 C13.36328125 89.70703125 13.36328125 89.70703125 9.48828125 90.20703125 C4.59635888 89.89672274 0.83966785 88.18341785 -2.63671875 84.70703125 C-2.63671875 82.89453125 -2.63671875 82.89453125 -1.63671875 80.70703125 C-0.18011693 79.5814753 1.27661518 78.45608702 2.734375 77.33203125 C7.60832331 72.46977106 10.37803424 64.80471417 10.6796875 58.0390625 C10.72158203 57.14638672 10.76347656 56.25371094 10.80664062 55.33398438 C10.84595703 54.40521484 10.88527344 53.47644531 10.92578125 52.51953125 C10.99055664 51.10897461 10.99055664 51.10897461 11.05664062 49.66992188 C11.1626679 47.34910271 11.26473154 45.028178 11.36328125 42.70703125 C10.31269531 42.59617188 9.26210937 42.4853125 8.1796875 42.37109375 C0.5422258 41.04215978 -5.75555483 36.49556966 -10.51953125 30.453125 C-12.08790276 28.00185904 -12.95013644 25.52201872 -13.63671875 22.70703125 C-17.08920051 23.8578585 -17.323246 24.45457395 -19.19921875 27.39453125 C-26.02179459 36.71317143 -37.06247354 39.52065869 -47.63671875 42.70703125 C-48.24682537 59.65443744 -44.795098 69.90771387 -33.63671875 82.70703125 C-35.00655378 85.86818901 -35.62578255 86.69974045 -38.63671875 88.70703125 C-40.66788242 89.32594539 -42.71150413 89.90449114 -44.76171875 90.45703125 C-50.17090936 92.05684767 -54.32226935 94.07645104 -58.83203125 97.4375 C-60.63671875 98.70703125 -60.63671875 98.70703125 -63.63671875 99.70703125 C-64.6249857 31.06048845 -64.6249857 31.06048845 -48.63671875 9.70703125 C-47.99605469 8.84851562 -47.35539062 7.99 -46.6953125 7.10546875 C-44.68286248 4.76079264 -42.83657804 3.20448303 -40.26171875 1.51953125 C-39.53210938 1.03097656 -38.8025 0.54242188 -38.05078125 0.0390625 C-27.68995963 -5.67783098 -10.58779498 -5.19194094 0 0 Z " fill="#FCFCFD" transform="translate(120.63671875,54.29296875)"/>
<path d="M0 0 C7.49796148 3.90661613 12.71838885 9.09045623 15.4609375 17.15234375 C17.27109498 24.19621741 15.56601812 30.62308164 13 37.25 C12.34 38.24 11.68 39.23 11 40.25 C11.15688424 42.37816413 11.15688424 42.37816413 12 44.25 C14.03133787 45.42739544 14.03133787 45.42739544 16.69921875 45.42578125 C21.30564672 46.57602539 23.57442084 49.08865416 26.8125 52.4375 C27.39708984 53.00275391 27.98167969 53.56800781 28.58398438 54.15039062 C32.02724254 57.63354749 33.97790137 60.11575272 34 65.25 C32.1728988 67.92037867 30.9690166 69.02412602 27.8046875 69.76171875 C23.29240322 68.93844683 20.8766842 65.88878351 17.75 62.6875 C17.11320312 62.07841797 16.47640625 61.46933594 15.8203125 60.84179688 C11.76008197 56.75996937 10.3804059 54.16823802 10 48.25 C9.34 47.59 8.68 46.93 8 46.25 C4.88333997 46.66776507 2.21799417 48.02065086 -0.625 49.3125 C-7.80036822 52.1847515 -13.890557 52.23756631 -21.1875 49.6875 C-28.39239851 46.45264761 -33.43560548 41.27927518 -36.3359375 33.90234375 C-38.15619992 26.63200148 -38.36474463 18.921027 -34.8125 12.1875 C-26.73689846 0.01786092 -14.17165894 -5.92847732 0 0 Z " fill="#FBFAFD" transform="translate(170,135.75)"/>
<path d="M0 0 C0.556875 0.721875 1.11375 1.44375 1.6875 2.1875 C8.08534055 9.96865742 14.41803033 14.1892889 24 17 C24.56545588 27.75936875 24.06020975 37.15493443 17.25 45.9375 C12.92070198 50.53118263 6.66333603 53.66894297 0.36328125 54.23828125 C-6.49866393 54.40521718 -11.28750014 53.88963474 -17 50 C-18.5778125 48.948125 -18.5778125 48.948125 -20.1875 47.875 C-24.7837771 43.85639707 -27.10843256 37.67470231 -29 32 C-29.07051114 29.26134713 -29.09357765 26.54972412 -29.0625 23.8125 C-29.05798828 23.06291016 -29.05347656 22.31332031 -29.04882812 21.54101562 C-29.03706354 19.69397617 -29.01912865 17.84697787 -29 16 C-27.53240234 15.56300781 -27.53240234 15.56300781 -26.03515625 15.1171875 C-15.71650102 11.9349216 -7.40302183 8.1194433 0 0 Z " fill="#FCFCFD" transform="translate(105,83)"/>
<path d="M0 0 C2.34114382 2.34114382 2.7545417 3.99017957 3.75 7.125 C6.00843542 13.41400084 8.39582488 18.86531239 14.328125 22.37890625 C21.30323242 25.44923728 27.22805842 26.25995525 34.5 23.5625 C44.28035851 18.72290881 48.52257125 9.8805788 52 0 C53.32 0.33 54.64 0.66 56 1 C55.76216797 2.06154297 55.76216797 2.06154297 55.51953125 3.14453125 C53.9154299 11.96105824 54.45369346 20.1687899 59 28 C60.73675454 30.26005613 62.54164306 32.34758418 64.51171875 34.40625 C66 36 66 36 67 38 C63.37 38 59.74 38 56 38 C55.67 34.7 55.34 31.4 55 28 C54.34 28 53.68 28 53 28 C52.67 30.97 52.34 33.94 52 37 C35.5 37 19 37 2 37 C2 33.7 2 30.4 2 27 C1.01 27.33 0.02 27.66 -1 28 C-1.33 30.97 -1.66 33.94 -2 37 C-8.6 37 -15.2 37 -22 37 C-23.46841236 29.65793822 -23.08812161 21.27321482 -19.73828125 14.41796875 C-15.26185865 8.27316817 -8.98080958 2.85001499 -1.8125 0.1875 C-0.9153125 0.0946875 -0.9153125 0.0946875 0 0 Z " fill="#FCFCFD" transform="translate(75,148)"/>
<path d="M0 0 C0.8353125 0.14179688 1.670625 0.28359375 2.53125 0.4296875 C6.56799693 1.09338688 10.41942414 1.14651446 14.5 1.125 C15.23347656 1.12886719 15.96695313 1.13273438 16.72265625 1.13671875 C20.92430334 1.12920239 24.86141267 0.82509811 29 0 C29 0.66 29 1.32 29 2 C30.98 2.66 32.96 3.32 35 4 C34.50261866 11.79230764 31.37141368 18.15666938 25.5625 23.4375 C22.58066225 25.79812155 19.72390094 27.09173148 16 28 C15.67 26.02 15.34 24.04 15 22 C14.34 22 13.68 22 13 22 C12.67 23.98 12.34 25.96 12 28 C6.57602808 27.66100175 2.778529 24.66044997 -1 21 C-5.06670884 15.67120911 -7.70708297 10.73709168 -8 4 C-6.865625 3.525625 -5.73125 3.05125 -4.5625 2.5625 C-1.24259834 1.36377917 -1.24259834 1.36377917 0 0 Z " fill="#FCFCFD" transform="translate(88,142)"/>
<path d="M0 0 C4.86265764 2.29871089 7.56145711 5.21670433 10 10 C10.86740814 15.85500491 9.31537432 20.23866803 6 25 C2.61405235 28.14971874 0.0326959 29.24705059 -4.5 29.4375 C-8.67273821 29.20645913 -11.55432296 28.50594694 -15 26 C-18.12154746 22.33342045 -19.83884525 19.16837197 -20.5 14.375 C-19.66537786 8.74130058 -17.53453969 4.46918191 -12.9375 0.91796875 C-8.80546624 -1.03974886 -4.42235327 -0.70520387 0 0 Z " fill="#FBFBFD" transform="translate(164,146)"/>
<path d="M0 0 C4.26377621 2.14245945 7.7740868 4.51698318 9.90234375 8.96875 C11.49241543 14.8202138 11.23688568 20.83759758 9.36328125 26.5625 C6.67890658 30.23114538 3.59995959 33.06916083 -0.51171875 35.125 C-7.56815423 35.82464658 -14.06824565 36.14853573 -19.921875 31.73046875 C-24.1786091 27.43189943 -25.72370112 22.9987689 -25.94921875 17 C-25.71367881 12.03846504 -24.71894175 8.34458839 -21.1171875 4.72265625 C-14.7030204 -0.87959097 -8.26065197 -2.87773879 0 0 Z M-20.51171875 9.125 C-22.83714094 13.06810719 -23.04798359 16.60505348 -22.51171875 21.125 C-20.68326786 25.3861538 -18.51802732 28.39313922 -14.76171875 31.125 C-9.86305514 32.63228111 -5.31432931 33.34000458 -0.484375 31.24609375 C3.98629883 28.38221601 5.97601645 25.28449168 7.48828125 20.125 C8.28592156 15.25053142 7.53288723 12.73202332 4.73828125 8.8125 C1.91142287 5.17898758 -0.4780515 3.44889188 -5.0625 2.71875 C-12.08904057 2.48022528 -16.05650028 3.52262947 -20.51171875 9.125 Z " fill="#9C82DE" transform="translate(166.51171875,142.875)"/>
<path d="M0 0 C0.53625 0.680625 1.0725 1.36125 1.625 2.0625 C4.35171744 5.43501894 7.16702345 8.71632263 10 12 C6.37 12 2.74 12 -1 12 C-1.125 2.25 -1.125 2.25 0 0 Z " fill="#F0EDF9" transform="translate(132,174)"/>
<path d="M0 0 C1.051875 0.185625 2.10375 0.37125 3.1875 0.5625 C6.57119882 0.95079331 8.76425888 0.88247485 12 0 C11.75 1.875 11.75 1.875 11 4 C8.59284731 5.80536451 7.38227026 6.03640669 4.375 5.75 C2 5 2 5 0 3 C0 2.01 0 1.02 0 0 Z " fill="#A087DF" transform="translate(96,123)"/>
<path d="M0 0 C2.475 0.495 2.475 0.495 5 1 C4.67 1.99 4.34 2.98 4 4 C2.68 4 1.36 4 0 4 C0 2.68 0 1.36 0 0 Z " fill="#A891E2" transform="translate(110,108)"/>
<path d="M0 0 C1.98 0.495 1.98 0.495 4 1 C3.67 1.99 3.34 2.98 3 4 C1.68 4 0.36 4 -1 4 C-0.67 2.68 -0.34 1.36 0 0 Z " fill="#A58DE0" transform="translate(91,108)"/>
</svg>
