<?xml version="1.0" encoding="UTF-8"?>
<svg version="1.1" xmlns="http://www.w3.org/2000/svg" width="256" height="256">
<path d="M0 0 C0.52190918 0.41652832 1.04381836 0.83305664 1.58154297 1.26220703 C27.71865179 22.23169738 45.21271256 51.69277488 49.56640625 85.20703125 C53.12397182 119.58228138 44.88794557 153.6720522 23.4296875 181.0703125 C0.93968564 208.18848194 -29.09745313 226.22650609 -64.62939453 229.81689453 C-100.5399102 232.59062128 -135.11843915 222.46651282 -162.59765625 198.96484375 C-186.15479173 178.19153022 -203.30978186 147.85394954 -205.87109375 116.15771484 C-207.84115191 83.1816277 -201.16577592 50.2214158 -180 24 C-179.58347168 23.47809082 -179.16694336 22.95618164 -178.73779297 22.41845703 C-157.49703178 -4.05677328 -127.8163354 -21.3993921 -93.87890625 -25.56640625 C-60.73852803 -28.87165711 -26.24739189 -21.18674367 0 0 Z " fill="#967ADC" transform="translate(206,26)"/>
<path d="M0 0 C0.99 0.66 1.98 1.32 3 2 C3 17.10803707 -6.52837158 29.9395823 -16 41 C-16.95132813 42.12148437 -16.95132813 42.12148437 -17.921875 43.265625 C-27.04568105 53.16924353 -39.48446037 60.50388813 -52.99609375 61.2734375 C-73.04131726 61.92071238 -85.86356687 54.83587046 -100.5546875 41.4296875 C-102.93361804 39.06595779 -105.05605099 36.7333931 -107 34 C-106.75 31.6875 -106.75 31.6875 -106 30 C-102.21412029 30.6575111 -98.79996416 31.76869063 -95.1875 33.0625 C-85.12442023 36.17726279 -73.87448843 36.93892501 -64.1640625 32.24609375 C-52.87445801 25.74540091 -46.4383166 16.6306355 -42.203125 4.3359375 C-41 2 -41 2 -39.01953125 1.07421875 C-37 1 -37 1 -34.4375 2.4375 C-28.9274381 4.94207359 -23.16695219 5.10675636 -17.41796875 3.09765625 C-15.77363186 2.37000481 -14.13165918 1.63698544 -12.4921875 0.8984375 C-8.4133675 -0.5719835 -4.26852206 -0.67356495 0 0 Z " fill="#987DDC" transform="translate(201,124)"/>
<path d="M0 0 C0.93972656 -0.00128906 1.87945312 -0.00257812 2.84765625 -0.00390625 C3.83636719 -0.00003906 4.82507813 0.00382812 5.84375 0.0078125 C7.32681641 0.00201172 7.32681641 0.00201172 8.83984375 -0.00390625 C10.24943359 -0.00197266 10.24943359 -0.00197266 11.6875 0 C12.55568359 0.00112793 13.42386719 0.00225586 14.31835938 0.00341797 C16.34375 0.1328125 16.34375 0.1328125 17.34375 1.1328125 C17.43026611 2.54851373 17.45079904 3.9684075 17.44140625 5.38671875 C17.43818359 6.24072266 17.43496094 7.09472656 17.43164062 7.97460938 C17.41907227 9.32135742 17.41907227 9.32135742 17.40625 10.6953125 C17.40173828 11.59701172 17.39722656 12.49871094 17.39257812 13.42773438 C17.38075225 15.66282564 17.3642722 17.89778687 17.34375 20.1328125 C18.19924438 20.12495728 18.19924438 20.12495728 19.07202148 20.11694336 C21.64175323 20.09623029 24.21146747 20.0831706 26.78125 20.0703125 C27.67908203 20.06193359 28.57691406 20.05355469 29.50195312 20.04492188 C30.35595703 20.04169922 31.20996094 20.03847656 32.08984375 20.03515625 C32.88060303 20.02991943 33.6713623 20.02468262 34.48608398 20.01928711 C36.34375 20.1328125 36.34375 20.1328125 37.34375 21.1328125 C37.59410974 24.43798184 37.52896952 27.75677291 37.53125 31.0703125 C37.54349609 32.00294922 37.55574219 32.93558594 37.56835938 33.89648438 C37.57029297 34.78787109 37.57222656 35.67925781 37.57421875 36.59765625 C37.57832764 37.4187085 37.58243652 38.23976074 37.58666992 39.08569336 C37.34375 41.1328125 37.34375 41.1328125 35.34375 43.1328125 C33.46435547 43.35986328 33.46435547 43.35986328 31.2109375 43.328125 C30.40527344 43.32167969 29.59960938 43.31523438 28.76953125 43.30859375 C27.50689453 43.28345703 27.50689453 43.28345703 26.21875 43.2578125 C24.94451172 43.24427734 24.94451172 43.24427734 23.64453125 43.23046875 C21.54415116 43.20686897 19.44391556 43.17099733 17.34375 43.1328125 C17.35535156 44.42058594 17.36695313 45.70835938 17.37890625 47.03515625 C17.3882827 48.71354022 17.39738305 50.39192576 17.40625 52.0703125 C17.41462891 52.92044922 17.42300781 53.77058594 17.43164062 54.64648438 C17.43486328 55.45537109 17.43808594 56.26425781 17.44140625 57.09765625 C17.44664307 57.846521 17.45187988 58.59538574 17.45727539 59.36694336 C17.34375 61.1328125 17.34375 61.1328125 16.34375 62.1328125 C14.70902118 62.21981592 13.07060945 62.23982313 11.43359375 62.23046875 C10.44423828 62.22724609 9.45488281 62.22402344 8.43554688 62.22070312 C7.39462891 62.21232422 6.35371094 62.20394531 5.28125 62.1953125 C4.23646484 62.19080078 3.19167969 62.18628906 2.11523438 62.18164062 C-0.47528454 62.16981177 -3.06577422 62.15187569 -5.65625 62.1328125 C-5.65625 55.8628125 -5.65625 49.5928125 -5.65625 43.1328125 C-11.86417914 43.17239277 -11.86417914 43.17239277 -18.07202148 43.22290039 C-18.84102783 43.22539795 -19.61003418 43.22789551 -20.40234375 43.23046875 C-21.19310303 43.23570557 -21.9838623 43.24094238 -22.79858398 43.24633789 C-24.65625 43.1328125 -24.65625 43.1328125 -25.65625 42.1328125 C-25.75524523 40.58325691 -25.78704524 39.02927577 -25.7890625 37.4765625 C-25.79035156 36.53683594 -25.79164062 35.59710938 -25.79296875 34.62890625 C-25.78910156 33.64019531 -25.78523438 32.65148437 -25.78125 31.6328125 C-25.78511719 30.64410156 -25.78898437 29.65539062 -25.79296875 28.63671875 C-25.79167969 27.69699219 -25.79039063 26.75726563 -25.7890625 25.7890625 C-25.78793457 24.92087891 -25.78680664 24.05269531 -25.78564453 23.15820312 C-25.65625 21.1328125 -25.65625 21.1328125 -24.65625 20.1328125 C-23.31609779 19.97698947 -21.96866097 19.88237108 -20.62109375 19.81640625 C-19.81220703 19.77451172 -19.00332031 19.73261719 -18.16992188 19.68945312 C-17.31978516 19.65013672 -16.46964844 19.61082031 -15.59375 19.5703125 C-14.73974609 19.52712891 -13.88574219 19.48394531 -13.00585938 19.43945312 C-10.88952963 19.33304548 -8.77291187 19.23239519 -6.65625 19.1328125 C-6.59566406 17.84503906 -6.53507812 16.55726562 -6.47265625 15.23046875 C-6.38826753 13.55207091 -6.3036187 11.87368614 -6.21875 10.1953125 C-6.17943359 9.34517578 -6.14011719 8.49503906 -6.09960938 7.61914062 C-6.05771484 6.81025391 -6.01582031 6.00136719 -5.97265625 5.16796875 C-5.93599854 4.419104 -5.89934082 3.67023926 -5.86157227 2.89868164 C-5.4392924 -0.73312604 -3.14828403 0.0040902 0 0 Z " fill="#977CDC" transform="translate(93.65625,67.8671875)"/>
<path d="M0 0 C1.8815918 0.29052734 1.8815918 0.29052734 4 1 C5.43460485 3.53791951 6.64131808 5.97063494 7.8125 8.625 C11.34831368 16.17995801 14.9899013 21.32660087 22 26 C26.62993293 26 29.12046258 23.44789984 32.3515625 20.47265625 C36.45157415 16.80984964 39.1146539 16.62038228 44.3828125 16.7578125 C52.48890171 17.50792822 57.98372761 21.79820492 64 27 C64.63164062 27.52464844 65.26328125 28.04929687 65.9140625 28.58984375 C74.95013517 36.73027045 79.44422742 49.31495444 80.38671875 61.2109375 C81.60928612 85.39484838 70.99708569 105.65432753 55.14453125 123.2109375 C44.31476756 134.77794709 30.12194926 144.40698691 13.8828125 145.2734375 C-6.96876099 145.90197355 -23.63787068 138.3363497 -38.93359375 124.21484375 C-41.94846539 121.26711847 -44.6847147 118.18184864 -47.375 114.9375 C-51.26986802 110.45752849 -56.06773882 105.67822486 -62.12890625 104.6328125 C-64.23637862 104.58219641 -64.23637862 104.58219641 -67 105 C-66.64453931 110.87991225 -64.88116418 114.13101297 -61 118.375 C-60.50814209 118.93372803 -60.01628418 119.49245605 -59.50952148 120.06811523 C-55.20351511 124.90898609 -50.66271563 129.50348017 -46 134 C-44.66435386 135.33101651 -43.33035383 136.66369381 -42 138 C-42.33 138.99 -42.66 139.98 -43 141 C-47.21794967 140.48759041 -49.18362967 139.32783971 -52.1796875 136.3515625 C-53.32171631 135.2219812 -53.32171631 135.2219812 -54.48681641 134.06958008 C-55.27491699 133.26286865 -56.06301758 132.45615723 -56.875 131.625 C-57.6798584 130.80733154 -58.4847168 129.98966309 -59.31396484 129.1472168 C-72.03444954 115.9886774 -72.03444954 115.9886774 -73.75 107.125 C-72.74815405 102.95064188 -71.53840049 101.43265034 -68 99 C-61.77392671 98.08139902 -57.18449735 99.37353812 -52 103 C-45.97147876 107.98940541 -40.49255414 113.32631786 -35.375 119.25 C-26.1478719 129.70079742 -11.98781384 137.94200766 2.11621094 139.18676758 C4.2689565 139.26618019 6.40853347 139.27339149 8.5625 139.25 C9.27857422 139.25773438 9.99464844 139.26546875 10.73242188 139.2734375 C15.47471092 139.25617712 19.46190441 138.5108934 24 137 C24.83144531 136.72800781 25.66289062 136.45601562 26.51953125 136.17578125 C33.61026706 133.50618565 40.34340729 129.77704517 45.66015625 124.28515625 C47 123 47 123 49 123 C49.25652344 122.41863281 49.51304687 121.83726562 49.77734375 121.23828125 C51.11146811 118.79593858 52.62072773 117.17634553 54.5625 115.1875 C68.31340446 99.86435056 75.41144947 81.30858351 74.453125 60.734375 C74.0049899 54.97199135 72.74310786 50.10404899 70 45 C69.55269531 44.13246094 69.10539063 43.26492187 68.64453125 42.37109375 C63.82376773 33.69888914 57.46726295 26.56962374 48 23 C44.41342039 22.14059594 41.56834708 22.00787892 38 23 C35.2802049 24.90261842 32.86861225 27.00566574 30.38671875 29.20703125 C27.91555792 31.06343522 26.73069859 31.61327564 23.6875 31.6875 C20.06716953 31.01252313 17.85023626 30.31581696 15 28 C15 27.34 15 26.68 15 26 C14.4225 25.77441406 13.845 25.54882812 13.25 25.31640625 C6.68630995 21.47619176 2.54066998 12.73136282 -0.50390625 5.97265625 C-1.0908023 3.63893573 -0.76174027 2.254953 0 0 Z " fill="#F8F7FC" transform="translate(136,52)"/>
<path d="M0 0 C3.49466445 1.64973349 4.37056435 5.02483556 5.85546875 8.3984375 C10.44917478 18.18853507 16.61522949 26.04476179 24.66015625 33.29296875 C29.1813423 38.48179108 29.61725429 43.34367427 29.48046875 49.8984375 C29.48369141 50.66285156 29.48691406 51.42726562 29.49023438 52.21484375 C29.4187568 59.86944277 27.79688861 66.33926048 24.29296875 73.2109375 C23.80054688 74.19449219 23.308125 75.17804688 22.80078125 76.19140625 C18.92791054 82.90870593 14.33109608 87.04539699 7.16796875 90.0234375 C-6.36210342 92.50893418 -19.65248338 85.94742692 -31.55273438 80.28540039 C-42.18963749 75.27064572 -53.50879256 71.30408298 -65.20703125 75.2109375 C-70.67568524 77.63260756 -75.56845984 81.36450897 -77.83203125 87.0234375 C-79.22456926 96.65086076 -76.13907372 104.15535279 -70.42993164 111.79785156 C-68.7054371 114.02904943 -66.93996536 116.22361741 -65.15332031 118.40527344 C-63.87100309 119.97570924 -62.61280315 121.56574181 -61.35546875 123.15625 C-57.76365482 127.66103336 -54.40774334 131.49490331 -49.83203125 135.0234375 C-47.95703125 137.0234375 -47.95703125 137.0234375 -46.83203125 139.0234375 C-47.14453125 141.2734375 -47.14453125 141.2734375 -47.83203125 143.0234375 C-52.9073106 141.56265599 -55.54203865 138.58084567 -58.95703125 134.7734375 C-59.80201172 133.84494995 -59.80201172 133.84494995 -60.6640625 132.89770508 C-84.54116313 106.34784472 -84.54116313 106.34784472 -84.13671875 89.765625 C-83.3325391 82.52800818 -79.50785475 78.01535118 -73.94921875 73.56640625 C-73.25054687 73.05722656 -72.551875 72.54804688 -71.83203125 72.0234375 C-71.23648438 71.58644531 -70.6409375 71.14945312 -70.02734375 70.69921875 C-62.9788861 66.38846676 -54.58635119 67.22705897 -46.73046875 68.54296875 C-34.85052953 71.53506262 -23.62948185 77.05300894 -12.45068359 81.96362305 C-5.61039207 84.73200879 2.47248138 85.53786877 9.41796875 82.6484375 C17.46677598 77.91481522 21.153437 68.96212265 23.51171875 60.33203125 C25.14716866 52.08663796 25.06809846 44.55472246 21.16796875 37.0234375 C19.51482694 35.67337169 17.84660934 34.34166408 16.16796875 33.0234375 C7.62912171 23.97869827 0.23580834 13.17146562 -2.83203125 1.0234375 C-1.83203125 0.0234375 -1.83203125 0.0234375 0 0 Z " fill="#F9F7FD" transform="translate(123.83203125,60.9765625)"/>
<path d="M0 0 C0.99 0.66 1.98 1.32 3 2 C3 17.10803707 -6.52837158 29.9395823 -16 41 C-16.95132813 42.12148437 -16.95132813 42.12148437 -17.921875 43.265625 C-27.04568105 53.16924353 -39.48446037 60.50388813 -52.99609375 61.2734375 C-73.04131726 61.92071238 -85.86356687 54.83587046 -100.5546875 41.4296875 C-102.93361804 39.06595779 -105.05605099 36.7333931 -107 34 C-106.75 31.6875 -106.75 31.6875 -106 30 C-102.21412029 30.6575111 -98.79996416 31.76869063 -95.1875 33.0625 C-85.12442023 36.17726279 -73.87448843 36.93892501 -64.1640625 32.24609375 C-52.87445801 25.74540091 -46.4383166 16.6306355 -42.203125 4.3359375 C-41 2 -41 2 -39.01953125 1.07421875 C-37 1 -37 1 -34.4375 2.4375 C-28.9274381 4.94207359 -23.16695219 5.10675636 -17.41796875 3.09765625 C-15.77363186 2.37000481 -14.13165918 1.63698544 -12.4921875 0.8984375 C-8.4133675 -0.5719835 -4.26852206 -0.67356495 0 0 Z M-12.5625 6.5 C-21.01867234 10.94862718 -29.15300261 9.3687122 -38 7 C-38.46148437 8.03898438 -38.92296875 9.07796875 -39.3984375 10.1484375 C-45.75686098 23.95596294 -53.36768845 33.38503309 -68 39 C-76.23881581 41.05970395 -85.66714633 40.5150643 -94 39 C-94 39.66 -94 40.32 -94 41 C-83.98343603 50.86156879 -72.04687827 56.88436062 -57.9375 57.25 C-43.64804463 56.89717394 -31.69422768 49.40772338 -21.4375 39.875 C-12.88126346 30.8445624 -2.67435672 17.81277766 -2 5 C-3.03500047 3.75291379 -3.03500047 3.75291379 -5.27734375 3.78125 C-8.38980483 4.03131861 -9.91497201 4.8872926 -12.5625 6.5 Z " fill="#F9F7FD" transform="translate(201,124)"/>
<path d="M0 0 C0.93972656 -0.00128906 1.87945312 -0.00257812 2.84765625 -0.00390625 C3.83636719 -0.00003906 4.82507813 0.00382812 5.84375 0.0078125 C7.32681641 0.00201172 7.32681641 0.00201172 8.83984375 -0.00390625 C10.24943359 -0.00197266 10.24943359 -0.00197266 11.6875 0 C12.55568359 0.00112793 13.42386719 0.00225586 14.31835938 0.00341797 C16.34375 0.1328125 16.34375 0.1328125 17.34375 1.1328125 C17.43026611 2.54851373 17.45079904 3.9684075 17.44140625 5.38671875 C17.43818359 6.24072266 17.43496094 7.09472656 17.43164062 7.97460938 C17.41907227 9.32135742 17.41907227 9.32135742 17.40625 10.6953125 C17.40173828 11.59701172 17.39722656 12.49871094 17.39257812 13.42773438 C17.38075225 15.66282564 17.3642722 17.89778687 17.34375 20.1328125 C18.19924438 20.12495728 18.19924438 20.12495728 19.07202148 20.11694336 C21.64175323 20.09623029 24.21146747 20.0831706 26.78125 20.0703125 C27.67908203 20.06193359 28.57691406 20.05355469 29.50195312 20.04492188 C30.35595703 20.04169922 31.20996094 20.03847656 32.08984375 20.03515625 C32.88060303 20.02991943 33.6713623 20.02468262 34.48608398 20.01928711 C36.34375 20.1328125 36.34375 20.1328125 37.34375 21.1328125 C37.59410974 24.43798184 37.52896952 27.75677291 37.53125 31.0703125 C37.54349609 32.00294922 37.55574219 32.93558594 37.56835938 33.89648438 C37.57029297 34.78787109 37.57222656 35.67925781 37.57421875 36.59765625 C37.57832764 37.4187085 37.58243652 38.23976074 37.58666992 39.08569336 C37.34375 41.1328125 37.34375 41.1328125 35.34375 43.1328125 C33.46435547 43.35986328 33.46435547 43.35986328 31.2109375 43.328125 C30.40527344 43.32167969 29.59960938 43.31523438 28.76953125 43.30859375 C27.50689453 43.28345703 27.50689453 43.28345703 26.21875 43.2578125 C24.94451172 43.24427734 24.94451172 43.24427734 23.64453125 43.23046875 C21.54415116 43.20686897 19.44391556 43.17099733 17.34375 43.1328125 C17.35535156 44.42058594 17.36695313 45.70835938 17.37890625 47.03515625 C17.3882827 48.71354022 17.39738305 50.39192576 17.40625 52.0703125 C17.41462891 52.92044922 17.42300781 53.77058594 17.43164062 54.64648438 C17.43486328 55.45537109 17.43808594 56.26425781 17.44140625 57.09765625 C17.44664307 57.846521 17.45187988 58.59538574 17.45727539 59.36694336 C17.34375 61.1328125 17.34375 61.1328125 16.34375 62.1328125 C14.70902118 62.21981592 13.07060945 62.23982313 11.43359375 62.23046875 C10.44423828 62.22724609 9.45488281 62.22402344 8.43554688 62.22070312 C7.39462891 62.21232422 6.35371094 62.20394531 5.28125 62.1953125 C4.23646484 62.19080078 3.19167969 62.18628906 2.11523438 62.18164062 C-0.47528454 62.16981177 -3.06577422 62.15187569 -5.65625 62.1328125 C-5.65625 55.8628125 -5.65625 49.5928125 -5.65625 43.1328125 C-11.86417914 43.17239277 -11.86417914 43.17239277 -18.07202148 43.22290039 C-18.84102783 43.22539795 -19.61003418 43.22789551 -20.40234375 43.23046875 C-21.19310303 43.23570557 -21.9838623 43.24094238 -22.79858398 43.24633789 C-24.65625 43.1328125 -24.65625 43.1328125 -25.65625 42.1328125 C-25.75524523 40.58325691 -25.78704524 39.02927577 -25.7890625 37.4765625 C-25.79035156 36.53683594 -25.79164062 35.59710938 -25.79296875 34.62890625 C-25.78910156 33.64019531 -25.78523438 32.65148437 -25.78125 31.6328125 C-25.78511719 30.64410156 -25.78898437 29.65539062 -25.79296875 28.63671875 C-25.79167969 27.69699219 -25.79039063 26.75726563 -25.7890625 25.7890625 C-25.78793457 24.92087891 -25.78680664 24.05269531 -25.78564453 23.15820312 C-25.65625 21.1328125 -25.65625 21.1328125 -24.65625 20.1328125 C-23.31609779 19.97698947 -21.96866097 19.88237108 -20.62109375 19.81640625 C-19.81220703 19.77451172 -19.00332031 19.73261719 -18.16992188 19.68945312 C-17.31978516 19.65013672 -16.46964844 19.61082031 -15.59375 19.5703125 C-14.73974609 19.52712891 -13.88574219 19.48394531 -13.00585938 19.43945312 C-10.88952963 19.33304548 -8.77291187 19.23239519 -6.65625 19.1328125 C-6.59566406 17.84503906 -6.53507812 16.55726562 -6.47265625 15.23046875 C-6.38826753 13.55207091 -6.3036187 11.87368614 -6.21875 10.1953125 C-6.17943359 9.34517578 -6.14011719 8.49503906 -6.09960938 7.61914062 C-6.05771484 6.81025391 -6.01582031 6.00136719 -5.97265625 5.16796875 C-5.93599854 4.419104 -5.89934082 3.67023926 -5.86157227 2.89868164 C-5.4392924 -0.73312604 -3.14828403 0.0040902 0 0 Z M-0.65625 5.1328125 C-0.98625 11.4028125 -1.31625 17.6728125 -1.65625 24.1328125 C-7.92625 24.1328125 -14.19625 24.1328125 -20.65625 24.1328125 C-20.65625 28.7528125 -20.65625 33.3728125 -20.65625 38.1328125 C-14.71625 38.4628125 -8.77625 38.7928125 -2.65625 39.1328125 C-2.32625 45.0728125 -1.99625 51.0128125 -1.65625 57.1328125 C2.96375 57.1328125 7.58375 57.1328125 12.34375 57.1328125 C12.67375 50.8628125 13.00375 44.5928125 13.34375 38.1328125 C19.61375 38.1328125 25.88375 38.1328125 32.34375 38.1328125 C32.34375 33.5128125 32.34375 28.8928125 32.34375 24.1328125 C26.07375 23.8028125 19.80375 23.4728125 13.34375 23.1328125 C12.84875 14.2228125 12.84875 14.2228125 12.34375 5.1328125 C8.05375 5.1328125 3.76375 5.1328125 -0.65625 5.1328125 Z " fill="#F9F7FD" transform="translate(93.65625,67.8671875)"/>
<path d="M0 0 C1.875 0.75 1.875 0.75 2.875 1.75 C3.0625 4.1875 3.0625 4.1875 2.875 6.75 C2.215 7.41 1.555 8.07 0.875 8.75 C-1.75 8.375 -1.75 8.375 -4.125 7.75 C-4.8125 5.4375 -4.8125 5.4375 -5.125 2.75 C-3.57413519 0.30126608 -2.92569791 -0.34419975 0 0 Z " fill="#F4F2FB" transform="translate(163.125,163.25)"/>
<path d="M0 0 C2.5625 0.1875 2.5625 0.1875 4.5625 2.1875 C4.1875 4.8125 4.1875 4.8125 3.5625 7.1875 C-1.1875 8.3125 -1.1875 8.3125 -3.4375 7.1875 C-3.48004356 5.18795254 -3.47830783 3.18708364 -3.4375 1.1875 C-2.4375 0.1875 -2.4375 0.1875 0 0 Z " fill="#F7F5FC" transform="translate(151.4375,157.8125)"/>
<path d="M0 0 C2.5625 0.1875 2.5625 0.1875 4.5625 2.1875 C4.1875 4.8125 4.1875 4.8125 3.5625 7.1875 C1.1875 7.8125 1.1875 7.8125 -1.4375 8.1875 C-3.4375 6.1875 -3.4375 6.1875 -3.625 3.625 C-3.37291261 0.34786389 -3.27713611 0.25208739 0 0 Z " fill="#F8F6FC" transform="translate(131.4375,166.8125)"/>
<path d="M0 0 C2.625 0.375 2.625 0.375 5 1 C5.625 3.375 5.625 3.375 6 6 C5.34 6.66 4.68 7.32 4 8 C1.375 7.625 1.375 7.625 -1 7 C-1.625 4.625 -1.625 4.625 -2 2 C-1.34 1.34 -0.68 0.68 0 0 Z " fill="#FBFBFE" transform="translate(143,170)"/>
<path d="M0 0 C1.32 0 2.64 0 4 0 C6 3 6 3 5.6875 5.125 C5 7 5 7 4 8 C1.5 8.125 1.5 8.125 -1 8 C-2 7 -2 7 -2.1875 4.5625 C-2 2 -2 2 0 0 Z " fill="#F8F7FD" transform="translate(165,149)"/>
</svg>
