<?xml version="1.0" encoding="UTF-8"?>
<svg version="1.1" xmlns="http://www.w3.org/2000/svg" width="256" height="256">
<path d="M0 0 C11.0635495 9.53200295 19.8832565 20.51746001 26.9375 33.3125 C27.43975098 34.20461182 27.43975098 34.20461182 27.95214844 35.11474609 C32.32965612 42.96754274 35.6971255 50.89344126 38.3125 59.5 C38.5511377 60.2825415 38.78977539 61.06508301 39.03564453 61.87133789 C42.31070675 73.3127429 43.30541315 84.69696109 43.25 96.5625 C43.24436035 97.83520752 43.2387207 99.10791504 43.23291016 100.41918945 C42.80028363 134.0591144 29.11362811 163.25411811 5.9375 187.3125 C5.23238281 188.09238281 4.52726563 188.87226563 3.80078125 189.67578125 C-9.49855055 203.93773135 -27.58642336 212.9857858 -45.8125 219.1875 C-47.07066528 219.61724121 -47.07066528 219.61724121 -48.35424805 220.05566406 C-59.52277592 223.67365321 -70.51478234 224.66444271 -82.18798828 224.62817383 C-84.29643064 224.62502401 -86.40344939 224.64853675 -88.51171875 224.67382812 C-101.38201088 224.73459889 -113.86475698 222.86898358 -126.0625 218.625 C-126.80467773 218.37008789 -127.54685547 218.11517578 -128.31152344 217.85253906 C-160.03965239 206.56633255 -186.66170893 182.44576761 -201.3125 152.125 C-216.21886281 119.87494288 -217.11582979 83.67725655 -205.08203125 50.40625 C-198.76624182 33.92973569 -189.1413911 20.10191411 -177.0625 7.3125 C-175.95841797 6.09433594 -175.95841797 6.09433594 -174.83203125 4.8515625 C-167.78041017 -2.63709372 -159.73777935 -8.25576584 -151.0625 -13.6875 C-150.15588623 -14.25645996 -150.15588623 -14.25645996 -149.23095703 -14.83691406 C-102.01765206 -43.76014393 -41.21810978 -34.37933138 0 0 Z " fill="#967ADC" transform="translate(213.0625,31.6875)"/>
<path d="M0 0 C2.61792115 10.63616791 4.6510916 21.36532438 6.64428711 32.13256836 C7.19234571 35.08863632 7.74731177 38.04335472 8.30273438 40.99804688 C8.65405928 42.88533975 9.00498548 44.7727069 9.35546875 46.66015625 C9.52104782 47.53930191 9.68662689 48.41844757 9.85722351 49.32423401 C10.00770645 50.14286423 10.15818939 50.96149445 10.31323242 51.80493164 C10.44630295 52.52072891 10.57937347 53.23652618 10.71647644 53.97401428 C11 56 11 56 11 60 C-1.87 60 -14.74 60 -28 60 C-28.11483146 52.96976267 -28.21436294 45.94278174 -28.2746582 38.91235352 C-28.29979315 36.52129081 -28.33390633 34.13030486 -28.37719727 31.73950195 C-28.43789061 28.30140236 -28.46622072 24.86431904 -28.48828125 21.42578125 C-28.51408768 20.35789871 -28.5398941 19.29001617 -28.56648254 18.18977356 C-28.56928573 10.76227602 -28.56928573 10.76227602 -25.66088867 6.86791992 C-21.42428474 3.89386205 -18.15793213 3 -13 3 C-12.82567109 6.74941253 -12.71914159 10.49778509 -12.625 14.25 C-12.54958984 15.84521484 -12.54958984 15.84521484 -12.47265625 17.47265625 C-12.41688901 20.42832012 -12.42855667 23.09812147 -13 26 C-15.8984375 28.546875 -15.8984375 28.546875 -19 30 C-20.9756562 32.96348429 -21.26376859 33.68020373 -21.4140625 37.01171875 C-21.45273438 37.76904297 -21.49140625 38.52636719 -21.53125 39.30664062 C-21.5621875 40.09232422 -21.593125 40.87800781 -21.625 41.6875 C-21.66367188 42.48478516 -21.70234375 43.28207031 -21.7421875 44.10351562 C-21.83632494 46.06863475 -21.91924632 48.0342854 -22 50 C-19.69 50 -17.38 50 -15 50 C-15 49.01 -15 48.02 -15 47 C-16.32 47 -17.64 47 -19 47 C-19.08126087 44.91731407 -19.13930839 42.83371342 -19.1875 40.75 C-19.22230469 39.58984375 -19.25710937 38.4296875 -19.29296875 37.234375 C-18.97504606 33.72450853 -18.5376275 32.40045844 -16 30 C-13.35059827 28.95547201 -10.83182525 28.7487897 -8 29 C-4.99295434 31.15890458 -4.17077018 32.48768947 -3 36 C-2.9314505 37.89470816 -2.91519628 39.7916834 -2.9375 41.6875 C-2.94652344 42.68136719 -2.95554687 43.67523438 -2.96484375 44.69921875 C-2.97644531 45.45847656 -2.98804687 46.21773437 -3 47 C-4.65 47 -6.3 47 -8 47 C-7.67 47.66 -7.34 48.32 -7 49 C-5.02 49 -3.04 49 -1 49 C-0.89116404 46.62374823 -0.81233304 44.25256024 -0.75 41.875 C-0.71648437 41.20984375 -0.68296875 40.5446875 -0.6484375 39.859375 C-0.54776859 34.72526074 -1.63789068 31.8538464 -5 28 C-6.65 27.34 -8.3 26.68 -10 26 C-10 18.08 -10 10.16 -10 2 C-5.7900275 0.316011 -4.21047434 -0.24059853 0 0 Z " fill="#FCFCFD" transform="translate(110,138)"/>
<path d="M0 0 C1.64630328 0.14042877 3.29204179 0.28749329 4.9375 0.4375 C6.31228516 0.55931641 6.31228516 0.55931641 7.71484375 0.68359375 C10 1 10 1 11 2 C11.13799854 4.41316621 11.21305611 6.79575488 11.23828125 9.2109375 C11.246353 9.93487701 11.25442474 10.65881653 11.26274109 11.4046936 C11.27659495 12.93969315 11.28731127 14.47472366 11.29516602 16.00976562 C11.3123803 18.3586664 11.35625094 20.70616012 11.40039062 23.0546875 C11.41051716 24.54426046 11.41903339 26.03384541 11.42578125 27.5234375 C11.44328934 28.22665131 11.46079742 28.92986511 11.47883606 29.65438843 C11.4699707 31.64599609 11.4699707 31.64599609 11 35 C8.99682617 36.74853516 8.99682617 36.74853516 7 38 C6.53086911 42.37855495 6.53056471 44.29584707 9 48 C10.90457929 48.43827201 10.90457929 48.43827201 13 48.3125 C14.051875 48.30669922 14.051875 48.30669922 15.125 48.30078125 C17.2416577 48.14912946 17.2416577 48.14912946 19 46 C19.57471477 41.91740162 19.57471477 41.91740162 19 38 C18.1735498 37.61473145 17.34709961 37.22946289 16.49560547 36.83251953 C14 35 14 35 13.43237305 31.72192383 C13.43316237 30.38336521 13.4612877 29.04463975 13.51171875 27.70703125 C13.51879349 27.00100266 13.52586823 26.29497406 13.53315735 25.56755066 C13.5611247 23.31478416 13.62385666 21.06451352 13.6875 18.8125 C13.71258034 17.28454114 13.73539399 15.75654327 13.75585938 14.22851562 C13.81095756 10.48471694 13.89723714 6.74278141 14 3 C19.42501869 3.64353721 22.74214473 4.43528396 27 8 C28.67570901 11.39199548 29.24733502 14.11935311 29.22705078 17.88208008 C29.22689972 18.82267776 29.22674866 19.76327545 29.22659302 20.7323761 C29.21627045 21.7346373 29.20594788 22.7368985 29.1953125 23.76953125 C29.1924826 24.80567062 29.18965271 25.84181 29.18673706 26.90934753 C29.17556454 30.21051707 29.15046505 33.51141281 29.125 36.8125 C29.11496643 39.05403253 29.10584124 41.29556933 29.09765625 43.53710938 C29.07733852 49.02492929 29.03818366 54.51215906 29 60 C16.13 60 3.26 60 -10 60 C-8.82229815 51.16723613 -7.64339374 42.44114444 -6.0546875 33.69140625 C-5.87994904 32.71380844 -5.70521057 31.73621063 -5.525177 30.72898865 C-4.97821025 27.67292801 -4.42670547 24.6177083 -3.875 21.5625 C-3.49839387 19.46294514 -3.12208963 17.36333611 -2.74609375 15.26367188 C-1.83420331 10.1751509 -0.91824847 5.08737731 0 0 Z " fill="#FCFBFD" transform="translate(146,138)"/>
<path d="M0 0 C1.04704102 -0.04930664 1.04704102 -0.04930664 2.11523438 -0.09960938 C4.16796875 -0.12109375 4.16796875 -0.12109375 7.8125 0.4375 C10.00390625 2.625 10.00390625 2.625 11.8125 5.4375 C12.98039062 6.76587891 12.98039062 6.76587891 14.171875 8.12109375 C14.96078125 9.02988281 15.7496875 9.93867187 16.5625 10.875 C17.36171875 11.78121094 18.1609375 12.68742187 18.984375 13.62109375 C21.12809913 16.92371147 21.29743987 18.57379427 20.8125 22.4375 C19.3125 25.8125 19.3125 25.8125 17.8125 28.4375 C17.27625 28.1075 16.74 27.7775 16.1875 27.4375 C13.1963974 26.17808838 11.03520017 26.16894165 7.8125 26.4375 C6.46272151 27.07020867 5.12897119 27.73812468 3.8125 28.4375 C-3.45279364 30.0887031 -9.518349 30.10385177 -16.328125 27.19140625 C-20.16093578 25.51564359 -20.16093578 25.51564359 -24.109375 26.21484375 C-24.71265625 26.59769531 -25.3159375 26.98054688 -25.9375 27.375 C-27.01 28.055625 -28.0825 28.73625 -29.1875 29.4375 C-31.31443201 25.18363598 -30.77723992 20.04556583 -30.1875 15.4375 C-27.35059141 8.80000013 -21.67586685 5.11589783 -15.1875 2.4375 C-10.0180997 0.69174787 -5.39875999 0.04562332 0 0 Z " fill="#FDFCFD" transform="translate(135.1875,58.5625)"/>
<path d="M0 0 C8.54393069 2.43359801 14.56278871 2.27616351 22.92578125 -0.75390625 C25.50964313 -1.39206212 26.73685264 -1.31802335 29.1875 -0.3125 C30.92578125 0.73828125 30.92578125 0.73828125 32.1875 2.6875 C32.40464241 5.49877043 32.47034276 8.0758345 32.375 10.875 C32.35469727 11.99938477 32.35469727 11.99938477 32.33398438 13.14648438 C32.29868539 14.99379767 32.24487917 16.84074066 32.1875 18.6875 C25.10158194 19.17246778 19.87899871 18.64464903 13.4765625 15.46484375 C9.45764378 14.10005736 6.21324334 15.58266514 2.5 17.25 C-2.32089819 19.14886238 -6.67777304 18.90144696 -11.8125 18.6875 C-11.8125 13.0775 -11.8125 7.4675 -11.8125 1.6875 C-5.11177007 -1.66286496 -5.11177007 -1.66286496 0 0 Z " fill="#F8F6FB" transform="translate(118.8125,88.3125)"/>
<path d="M0 0 C4.22648479 1.14616537 8.33608069 1.62504777 12.6875 2 C10.86702125 8.5233822 8.2423188 12.25106186 2.5 15.8125 C-3.08135994 18.69909532 -7.60170817 19.00578701 -13.6328125 17.37109375 C-19.63502253 15.10246182 -23.7990754 11.35378987 -27.3125 6 C-28 3.75 -28 3.75 -28.3125 2 C-27.52746094 1.87882812 -26.74242188 1.75765625 -25.93359375 1.6328125 C-19.10134115 0.58890048 -19.10134115 0.58890048 -12.4375 -1.1875 C-7.80106586 -2.39297288 -4.50840906 -1.36102915 0 0 Z " fill="#FDFCFD" transform="translate(136.3125,108)"/>
<path d="M0 0 C0.69996094 0.16242188 1.39992188 0.32484375 2.12109375 0.4921875 C5.15998993 1.02822075 7.97852282 1.13279767 11.0625 1.125 C12.08472656 1.12757813 13.10695312 1.13015625 14.16015625 1.1328125 C16.61649932 1.01793538 18.65768316 0.70775041 21 0 C22.01695925 3.78921801 22.55207229 7.09459975 22 11 C19.22605174 14.56026431 16.09170586 17.08975115 12 19 C7.45892082 18.7300273 4.10166047 16.81296969 0.5390625 14.09765625 C-1.6195534 11.15558331 -1.31319223 9.20978134 -1 5.625 C-0.7069825 3.74327822 -0.38624105 1.86482009 0 0 Z " fill="#FBFAFC" transform="translate(118,127)"/>
<path d="M0 0 C1.65 0 3.3 0 5 0 C9.10496535 27.73840666 9.10496535 27.73840666 7 36 C4.36 36 1.72 36 -1 36 C-5.30135341 27.39729317 -1.97605143 8.93374511 0 0 Z " fill="#FAF9FC" transform="translate(126,162)"/>
<path d="M0 0 C1.06432275 3.19296825 1.03788336 5.20444941 0.87890625 8.54296875 C0.83056641 9.61611328 0.78222656 10.68925781 0.73242188 11.79492188 C0.67634766 12.91447266 0.62027344 14.03402344 0.5625 15.1875 C0.51029297 16.31865234 0.45808594 17.44980469 0.40429688 18.61523438 C0.27456193 21.4104328 0.13959359 24.2052794 0 27 C-1.6855556 23.9939911 -2.39446371 21.42308873 -2.8515625 18.015625 C-2.98046875 17.08105469 -3.109375 16.14648438 -3.2421875 15.18359375 C-3.36851563 14.21550781 -3.49484375 13.24742187 -3.625 12.25 C-3.7590625 11.26644531 -3.893125 10.28289062 -4.03125 9.26953125 C-4.36050768 6.84713544 -4.68318477 4.42404916 -5 2 C-2 0 -2 0 0 0 Z " fill="#F8F6FB" transform="translate(122,154)"/>
<path d="M0 0 C2.475 0.99 2.475 0.99 5 2 C4.55429393 5.43926093 4.09127385 8.87597202 3.625 12.3125 C3.49867188 13.28896484 3.37234375 14.26542969 3.2421875 15.27148438 C3.11328125 16.20927734 2.984375 17.14707031 2.8515625 18.11328125 C2.73635254 18.97735596 2.62114258 19.84143066 2.50244141 20.73168945 C2 23 2 23 0 26 C-0.19777236 22.6046836 -0.38139685 19.20874308 -0.5625 15.8125 C-0.61857422 14.85279297 -0.67464844 13.89308594 -0.73242188 12.90429688 C-0.78076172 11.97294922 -0.82910156 11.04160156 -0.87890625 10.08203125 C-0.9260376 9.22843018 -0.97316895 8.3748291 -1.02172852 7.49536133 C-0.99892429 4.87646242 -0.59213206 2.54596848 0 0 Z " fill="#F3F0FA" transform="translate(135,154)"/>
<path d="M0 0 C0.98612849 3.94451397 0.91655666 5.43186434 0.0625 9.25 C-0.13214844 10.14203125 -0.32679688 11.0340625 -0.52734375 11.953125 C-0.68332031 12.62859375 -0.83929688 13.3040625 -1 14 C-5.15414253 12.77263971 -7.43688534 11.672336 -11 9 C-7.37 6.03 -3.74 3.06 0 0 Z " fill="#F4F1FA" transform="translate(142,139)"/>
<path d="M0 0 C3.75639899 2.20964647 7.46340139 4.45035914 11 7 C11 7.66 11 8.32 11 9 C4.25 13 4.25 13 2 13 C1.66127487 11.58461283 1.32925376 10.16762037 1 8.75 C0.814375 7.96109375 0.62875 7.1721875 0.4375 6.359375 C0 4 0 4 0 0 Z " fill="#F7F5FB" transform="translate(114,140)"/>
<path d="M0 0 C6.36495154 0.02946737 10.51932021 1.30158446 15.46875 5.3671875 C17.43601324 7.46493249 18 9.13137088 18 12 C17.01 12 16.02 12 15 12 C14.67 10.68 14.34 9.36 14 8 C13.34 8 12.68 8 12 8 C11.67 7.34 11.34 6.68 11 6 C8.42562419 5.08719862 8.42562419 5.08719862 5.4375 4.375 C4.42558594 4.11460937 3.41367188 3.85421875 2.37109375 3.5859375 C1.58863281 3.39257812 0.80617187 3.19921875 0 3 C0 2.01 0 1.02 0 0 Z " fill="#F5F2FA" transform="translate(141,125)"/>
<path d="M0 0 C3 0.125 3 0.125 4 1.125 C4.125 4.125 4.125 4.125 4 7.125 C3 8.125 3 8.125 0 8.25 C-3 8.125 -3 8.125 -4 7.125 C-4.125 4.125 -4.125 4.125 -4 1.125 C-3 0.125 -3 0.125 0 0 Z " fill="#FAF9FC" transform="translate(159,175.875)"/>
<path d="M0 0 C0 0.99 0 1.98 0 3 C-0.66386719 3.23074219 -1.32773438 3.46148437 -2.01171875 3.69921875 C-7.4990018 5.7259087 -11.23865122 7.48638146 -15 12 C-15.66 11.67 -16.32 11.34 -17 11 C-13.81348746 5.60744031 -10.55980683 1.97085641 -4.25 0.25 C-2 0 -2 0 0 0 Z " fill="#F6F4FB" transform="translate(115,125)"/>
<path d="M0 0 C2.00720923 0.28674418 4.0085944 0.61866701 6 1 C6 3.31 6 5.62 6 8 C4.02 8 2.04 8 0 8 C-0.38063221 5.6739143 -0.71269945 3.33944736 -1 1 C-0.67 0.67 -0.34 0.34 0 0 Z " fill="#F6F3FB" transform="translate(126,151)"/>
</svg>
