<?xml version="1.0" encoding="UTF-8"?>
<svg version="1.1" xmlns="http://www.w3.org/2000/svg" width="256" height="256">
<path d="M0 0 C0.52190918 0.41652832 1.04381836 0.83305664 1.58154297 1.26220703 C27.71865179 22.23169738 45.21271256 51.69277488 49.56640625 85.20703125 C53.12397182 119.58228138 44.88794557 153.6720522 23.4296875 181.0703125 C0.93968564 208.18848194 -29.09745313 226.22650609 -64.62939453 229.81689453 C-100.5399102 232.59062128 -135.11843915 222.46651282 -162.59765625 198.96484375 C-186.15479173 178.19153022 -203.30978186 147.85394954 -205.87109375 116.15771484 C-207.84115191 83.1816277 -201.16577592 50.2214158 -180 24 C-179.58347168 23.47809082 -179.16694336 22.95618164 -178.73779297 22.41845703 C-157.49703178 -4.05677328 -127.8163354 -21.3993921 -93.87890625 -25.56640625 C-60.73852803 -28.87165711 -26.24739189 -21.18674367 0 0 Z " fill="#967ADC" transform="translate(206,26)"/>
<path d="M0 0 C6.51540908 -0.32499665 13.00191934 -0.60208401 19.51904297 -0.76904297 C21.72509766 -0.83869434 23.93052466 -0.93366661 26.13427734 -1.05615234 C40.15111142 -1.81468043 49.44178709 -0.92545446 60.2359314 8.5753479 C61.5443534 9.78801463 62.84144347 11.0130496 64.12559509 12.25138855 C67.00415412 14.93676419 70.13882163 17.24144806 73.3125 19.5625 C83.72098107 27.41307984 83.72098107 27.41307984 84.375 31.1328125 C83.8399216 33.97541652 83.33618854 36.38695031 81.9375 38.9375 C78.79320757 40.6617894 75.53340775 41.43935543 72 41 C67.79725418 38.50107005 63.95638193 35.51489143 60.0625 32.5625 C53.10072618 26.33010725 53.10072618 26.33010725 45 23 C44.67 24.32 44.34 25.64 44 27 C44.53238281 27.23203125 45.06476563 27.4640625 45.61328125 27.703125 C48.73036498 29.39685953 51.41504453 31.5568273 54.1875 33.75 C55.35166245 34.64999464 56.51703066 35.54843173 57.68359375 36.4453125 C59.64218669 37.95140869 61.59241123 39.46553117 63.53515625 40.9921875 C67.99985865 44.28362595 71.31409498 45.81521153 76.9296875 45.39453125 C80.96927389 44.62472328 83.93620437 43.16337467 86.7109375 40.12890625 C89.59719383 37.44458936 92.79190213 35.86872714 96.3125 34.1875 C97.01165527 33.84783203 97.71081055 33.50816406 98.43115234 33.15820312 C99.88894029 32.45238888 101.34860638 31.75044154 102.81005859 31.05224609 C104.94138753 30.02816274 107.05914585 28.97983458 109.17578125 27.92578125 C110.49172071 27.28289781 111.80810911 26.64093227 113.125 26 C114.30320312 25.4225 115.48140625 24.845 116.6953125 24.25 C120.12391563 22.95312884 122.37449466 22.55132438 126 23 C128.8125 25.4375 128.8125 25.4375 131 28 C131.33 28.33 131.66 28.66 132 29 C132.40663647 32.57840097 132.37326404 34.42768434 130.38208008 37.48071289 C127.64665984 40.37369244 125.13889982 41.79551836 121.57421875 43.55859375 C120.9495723 43.87022964 120.32492584 44.18186554 119.68135071 44.50294495 C118.35866515 45.15977258 117.03308077 45.8107912 115.70483398 46.45629883 C113.72533547 47.41909739 111.7557836 48.4000573 109.78710938 49.38476562 C103.28704338 52.60939501 96.71830531 55.65035338 90.01171875 58.421875 C88.27281372 59.14068848 88.27281372 59.14068848 86.4987793 59.87402344 C74.34990262 63.78377288 63.59917878 60.77798034 52.53662109 55.34570312 C49.629632 53.80351603 46.81389904 52.13971688 43.98828125 50.453125 C28.44044487 41.29712476 18.17944456 38.34291164 0 39 C0 26.13 0 13.26 0 0 Z " fill="#FDFCFE" transform="translate(40,140)"/>
<path d="M0 0 C0.67353516 -0.02449219 1.34707031 -0.04898438 2.04101562 -0.07421875 C6.01159607 -0.09701634 7.92269344 0.21114468 11.41259766 2.37060547 C17.93713813 5.73868274 25.53350627 4.94863441 32.69140625 4.90625 C34.29988336 4.90894874 35.90835888 4.91283433 37.51683044 4.91784668 C40.87653238 4.92372215 44.23580699 4.91524125 47.59545898 4.89648438 C51.88832579 4.87367706 56.18019308 4.88684085 60.47302341 4.91077423 C63.7906184 4.92526969 67.1079787 4.9206095 70.42558098 4.91026306 C72.00792499 4.90760706 73.59029075 4.91082567 75.17260933 4.92018127 C77.38851019 4.93041167 79.6028203 4.91475954 81.81860352 4.89257812 C83.70434837 4.88780457 83.70434837 4.88780457 85.62818909 4.88293457 C90.04488133 4.25264665 92.39833038 2.68973865 96.1875 0.375 C104.44647838 -0.84574604 112.77069732 -0.59584445 120.07421875 3.76171875 C123.72771716 6.55080349 126.54136643 9.62689569 129.1875 13.375 C129.83912109 14.28378906 129.83912109 14.28378906 130.50390625 15.2109375 C134.11126931 21.16874269 134.00702841 27.61182112 133.1875 34.375 C131.56055023 40.29988125 128.80893577 44.39543031 124.1875 48.375 C122.1875 45.375 122.1875 45.375 122.375 43.625 C123.1875 41.375 123.1875 41.375 124.75 38.4375 C127.11704654 33.05042857 126.76406351 27.12585145 126.1875 21.375 C124.87546267 17.8186007 124.87546267 17.8186007 123.1875 15.375 C123.1875 14.715 123.1875 14.055 123.1875 13.375 C122.1975 13.045 121.2075 12.715 120.1875 12.375 C120.1875 11.715 120.1875 11.055 120.1875 10.375 C119.465625 10.08625 118.74375 9.7975 118 9.5 C116.26772454 8.80708982 114.55271888 8.06618756 112.875 7.25 C107.73945677 5.57796267 103.5840741 5.91750159 98.5625 7.5625 C92.2048533 10.97679174 88.18708751 15.171327 84.3125 21.125 C83.67622681 22.09095093 83.67622681 22.09095093 83.02709961 23.07641602 C78.68849435 29.85107139 75.165729 37.02506196 72.01953125 44.4230957 C71.23176829 46.27114877 70.38504097 48.09374204 69.53515625 49.9140625 C67.2167406 56.23049143 67.37913924 63.1560569 67.0625 69.8125 C66.91829174 72.54059982 66.76756852 75.26832832 66.6171875 77.99609375 C66.54854492 79.26952637 66.47990234 80.54295898 66.40917969 81.85498047 C66.14472293 86.0542508 65.71440679 90.20134355 65.1875 94.375 C63.5375 94.375 61.8875 94.375 60.1875 94.375 C58.16996488 50.3585914 58.16996488 50.3585914 68.83154297 36.21142578 C71.07447175 33.17373937 72.88417789 29.90193711 74.75 26.625 C75.39066406 25.57828125 76.03132813 24.5315625 76.69140625 23.453125 C78.36933813 20.00087874 78.99800069 17.20196158 79.1875 13.375 C77.39849003 11.17098147 77.39849003 11.17098147 75.01756287 11.12776184 C73.66973473 11.12989937 73.66973473 11.12989937 72.29467773 11.13208008 C71.27699814 11.12900345 70.25931854 11.12592682 69.21080017 11.12275696 C67.55764549 11.13353523 67.55764549 11.13353523 65.87109375 11.14453125 C64.74429703 11.14498947 63.61750031 11.14544769 62.45655823 11.1459198 C60.07169544 11.14894464 57.68683467 11.15683779 55.30200195 11.16918945 C51.63681091 11.18744118 47.97187235 11.18969923 44.30664062 11.18945312 C41.99478947 11.19436827 39.68294003 11.20019658 37.37109375 11.20703125 C36.2669664 11.20814407 35.16283905 11.2092569 34.0252533 11.21040344 C32.50346214 11.21997322 32.50346214 11.21997322 30.95092773 11.22973633 C30.05317123 11.23354813 29.15541473 11.23735992 28.23045349 11.24128723 C26.19358049 11.14911443 26.19358049 11.14911443 25.1875 12.375 C24.48188948 18.74171564 26.32315209 22.15814608 29.625 27.3125 C30.54061156 28.80113166 31.45463451 30.29074143 32.3671875 31.78125 C32.83479492 32.53664062 33.30240234 33.29203125 33.78417969 34.0703125 C36.03378393 37.76486087 38.14354521 41.53506568 40.25 45.3125 C40.8222229 46.33234985 40.8222229 46.33234985 41.40600586 47.37280273 C44.64079825 53.14863597 45.32452848 56.72459925 45.28515625 63.3203125 C45.2837413 64.2053244 45.28232635 65.0903363 45.28086853 66.00216675 C45.2752614 68.83481191 45.26270771 71.66737864 45.25 74.5 C45.24498592 76.41796761 45.24042285 78.33593646 45.23632812 80.25390625 C45.22528966 84.96096782 45.20802025 89.6679706 45.1875 94.375 C43.5375 94.375 41.8875 94.375 40.1875 94.375 C39.42111687 89.49644194 38.99660507 84.73133758 38.79296875 79.7890625 C38.72418696 78.34891605 38.65449718 76.90881273 38.58398438 75.46875 C38.4769764 73.23554008 38.37510303 71.0026677 38.28881836 68.76855469 C37.95348991 60.29847566 37.52078443 52.88533688 33.1875 45.375 C32.74277344 44.4365625 32.29804687 43.498125 31.83984375 42.53125 C29.25063192 37.58542692 26.49868056 32.73356161 23.75 27.875 C23.17701172 26.85535156 22.60402344 25.83570312 22.01367188 24.78515625 C15.99256518 12.993098 15.99256518 12.993098 5.1875 6.375 C-2.23585049 5.08784207 -7.4960144 6.47350811 -13.7109375 10.65625 C-17.67448101 13.89780974 -19.81521861 17.31606349 -20.8125 22.375 C-21.42108652 29.35877971 -21.2495025 34.61158177 -17.63671875 40.68359375 C-16.8125 42.375 -16.8125 42.375 -17.0625 45.375 C-17.31 46.035 -17.5575 46.695 -17.8125 47.375 C-18.8025 47.375 -19.7925 47.375 -20.8125 47.375 C-26.35092355 41.83657645 -27.99131217 35.58360144 -28.3125 28 C-28.11886837 20.0518825 -25.48098406 14.44375667 -20.3125 8.5 C-19.4875 7.79875 -18.6625 7.0975 -17.8125 6.375 C-16.9875 5.653125 -16.1625 4.93125 -15.3125 4.1875 C-10.40535686 0.62982123 -5.96201935 0.01121735 0 0 Z " fill="#FBFAFD" transform="translate(82.8125,54.625)"/>
<path d="M0 0 C15.18 0 30.36 0 46 0 C36.88145161 18.23709677 36.88145161 18.23709677 33.125 24.6875 C28.64376106 32.41456783 26.70109039 37.77462356 26.5859375 46.67578125 C26.56657135 47.6009404 26.5472052 48.52609955 26.5272522 49.47929382 C26.46764746 52.42360317 26.42114752 55.36795202 26.375 58.3125 C26.33680264 60.31316775 26.29774988 62.31381936 26.2578125 64.31445312 C26.16196159 69.2095038 26.07786 74.10463145 26 79 C24.35 79 22.7 79 21 79 C21.00636475 77.83130371 21.01272949 76.66260742 21.01928711 75.45849609 C21.03389204 71.05581047 21.00203713 66.65440176 20.95727539 62.25195312 C20.94426439 60.35909408 20.94328156 58.46610765 20.95532227 56.57324219 C21.02634051 43.78995841 19.9562793 35.00855644 13 24 C11.82337869 21.96402692 10.64757035 19.92758375 9.47265625 17.890625 C8.3409189 16.00741405 7.20425922 14.12715178 6.0625 12.25 C4.90360458 10.34093241 3.74844222 8.4295919 2.59765625 6.515625 C2.09758057 5.69352539 1.59750488 4.87142578 1.08227539 4.02441406 C0 2 0 2 0 0 Z " fill="#FBFAFD" transform="translate(112,70)"/>
<path d="M0 0 C2.8100346 1.79363911 4.50940468 3.01880935 6 6 C6.39460278 9.551425 6.32176502 11.45031809 4.5 14.5625 C0.01487145 18.93550033 -4.25001849 22.24948025 -10.6875 22.625 C-14.10010893 22.4065458 -15.0864856 21.94175459 -18.0625 19.9375 C-20.50495172 16.23442804 -20.7007844 14.36043626 -20 10 C-15.74696211 2.55718369 -8.3453105 -1.23127532 0 0 Z " fill="#FCFBFE" transform="translate(197,99)"/>
<path d="M0 0 C5.88961492 0.42710948 10.86274883 4.2649894 15.375 7.8125 C17.65689412 11.23534118 17.55891607 12.88620637 16.8984375 16.87109375 C16.05996431 19.98095326 15.14630205 21.14971877 12.375 22.8125 C8.17123663 23.77287881 4.78204782 23.49940523 0.89453125 21.6015625 C-2.99299895 19.10288893 -6.09756162 16.7354565 -8.625 12.8125 C-9.34501783 8.67239748 -8.78616027 7.08445796 -6.625 3.4375 C-3.625 0.8125 -3.625 0.8125 0 0 Z " fill="#FCFBFE" transform="translate(76.625,98.1875)"/>
</svg>
