<?xml version="1.0" encoding="UTF-8"?>
<svg version="1.1" xmlns="http://www.w3.org/2000/svg" width="256" height="256">
<path d="M0 0 C0.70787659 0.00215515 1.41575317 0.0043103 2.14508057 0.00653076 C12.46529218 0.05697852 22.25394223 0.42670066 32.25 3.3125 C32.93562012 3.50054199 33.62124023 3.68858398 34.32763672 3.88232422 C66.24302637 12.7874618 94.29166395 33.76940847 111.25 62.3125 C122.85133123 83.16914231 128.69340173 104.17188366 128.5625 128.0625 C128.56034485 128.77037659 128.5581897 129.47825317 128.55596924 130.20758057 C128.50552148 140.52779218 128.13579934 150.31644223 125.25 160.3125 C125.06195801 160.99812012 124.87391602 161.68374023 124.68017578 162.39013672 C115.7750382 194.30552637 94.79309153 222.35416395 66.25 239.3125 C45.39335769 250.91383123 24.39061634 256.75590173 0.5 256.625 C-0.20787659 256.62284485 -0.91575317 256.6206897 -1.64508057 256.61846924 C-11.96529218 256.56802148 -21.75394223 256.19829934 -31.75 253.3125 C-32.43562012 253.12445801 -33.12124023 252.93641602 -33.82763672 252.74267578 C-65.74302637 243.8375382 -93.79166395 222.85559153 -110.75 194.3125 C-122.35133123 173.45585769 -128.19340173 152.45311634 -128.0625 128.5625 C-128.06034485 127.85462341 -128.0581897 127.14674683 -128.05596924 126.41741943 C-128.00552148 116.09720782 -127.63579934 106.30855777 -124.75 96.3125 C-124.46793701 95.28406982 -124.46793701 95.28406982 -124.18017578 94.23486328 C-115.2750382 62.31947363 -94.29309153 34.27083605 -65.75 17.3125 C-44.89335769 5.71116877 -23.89061634 -0.13090173 0 0 Z " fill="#967ADC" transform="translate(127.75,-0.3125)"/>
<path d="M0 0 C8.92461351 8.02906406 14.34484081 18.22516295 15.23828125 30.19140625 C15.50675485 42.38575998 13.28577356 53.3650168 4.75 62.375 C1.88095193 64.07034659 -0.44694657 65.05633502 -3.828125 64.91015625 C-8.09374009 63.12258734 -10.22729766 58.8392024 -12.74609375 55.12890625 C-15.31836622 51.55803927 -18.12364823 49.00252127 -21.56640625 46.3046875 C-22.03949219 45.87414062 -22.51257813 45.44359375 -23 45 C-23 44.34 -23 43.68 -23 43 C-23.73476562 42.72800781 -24.46953125 42.45601562 -25.2265625 42.17578125 C-27.86324197 41.0579777 -29.9970144 39.76865183 -32.375 38.1875 C-42.53443676 32.03163387 -53.28223511 29.56419485 -64.953125 28.5546875 C-68.14264465 27.97403136 -69.17351706 27.61462284 -71 25 C-72.27696224 21.16911327 -72.80733348 17.94992908 -72 14 C-66.36668668 3.30171952 -57.19778638 -5.32440276 -45.95703125 -9.81640625 C-29.35602227 -14.40817469 -13.408503 -10.27034272 0 0 Z " fill="#FEFDFE" transform="translate(164,76)"/>
<path d="M0 0 C1.41388811 1.1871565 2.81087663 2.39482593 4.1875 3.625 C4.80238281 4.15867187 5.41726562 4.69234375 6.05078125 5.2421875 C17.55663352 15.90614814 22.98260343 30.43660987 23.58251953 45.89038086 C23.90488564 63.79652158 17.80517558 86.1598546 5.94381714 100.08508301 C1.68220654 105.24360966 1.46665257 109.57071749 1.515625 116.1171875 C1.50287537 117.10373322 1.49012573 118.09027893 1.47698975 119.10671997 C1.4408217 122.23810971 1.43798149 125.36842015 1.4375 128.5 C1.41590684 131.65260201 1.3875169 134.80504111 1.35516357 137.95755005 C1.33735528 139.91507541 1.32711302 141.87268651 1.32501221 143.83029175 C1.32120544 144.70855621 1.31739868 145.58682068 1.31347656 146.49169922 C1.31301331 147.26778534 1.31255005 148.04387146 1.31207275 148.84347534 C1.1875 150.625 1.1875 150.625 0.1875 151.625 C-2.3125 151.75 -2.3125 151.75 -4.8125 151.625 C-6.39223754 150.04526246 -5.97909856 148.42561666 -6.02124023 146.23217773 C-6.04053085 145.2970787 -6.05982147 144.36197968 -6.07969666 143.39854431 C-6.13738214 139.09280044 -6.18677418 134.78722889 -6.2175293 130.48120117 C-6.23905888 128.21444416 -6.27310115 125.94776913 -6.32006836 123.68139648 C-6.38725195 120.41091821 -6.41456542 117.14216597 -6.43359375 113.87109375 C-6.46142441 112.86557968 -6.48925507 111.86006561 -6.51792908 110.82408142 C-6.49981385 104.57459165 -5.46881244 101.06316255 -1.3106842 96.33592224 C1.07927526 93.60659511 2.59540311 90.48841766 4.1875 87.25 C4.52144775 86.57807617 4.85539551 85.90615234 5.19946289 85.21386719 C13.43467801 68.08713491 18.77932988 49.16114964 13.21484375 30.390625 C8.84920067 18.63824744 1.67800256 9.25272278 -9.5 3.25 C-21.00627354 -1.9359261 -32.21990505 -4.29243935 -44.8125 -3.375 C-46.28783203 -3.28605469 -46.28783203 -3.28605469 -47.79296875 -3.1953125 C-59.56174401 -1.8929649 -73.04988834 4.55039763 -80.8125 13.625 C-91.25276707 26.70837266 -93.97019152 41.36770344 -92.8125 57.625 C-92.50699219 58.75164062 -92.20148438 59.87828125 -91.88671875 61.0390625 C-91.7713706 66.6121993 -94.88476141 69.70247667 -98.25 73.9375 C-99.48147382 75.53498461 -100.70952686 77.13511404 -101.93359375 78.73828125 C-102.4845874 79.43735596 -103.03558105 80.13643066 -103.60327148 80.85668945 C-105.00065715 82.54311228 -105.00065715 82.54311228 -104.8125 84.625 C-103.85537109 85.04072266 -103.85537109 85.04072266 -102.87890625 85.46484375 C-102.05261719 85.82707031 -101.22632812 86.18929687 -100.375 86.5625 C-99.55128906 86.92214844 -98.72757813 87.28179687 -97.87890625 87.65234375 C-95.8125 88.625 -95.8125 88.625 -94.8125 89.625 C-94.68875 91.2646875 -94.68875 91.2646875 -94.5625 92.9375 C-94.14943772 96.77036193 -94.14943772 96.77036193 -91.25 99.0625 C-90.445625 99.578125 -89.64125 100.09375 -88.8125 100.625 C-89.42527612 103.58675123 -90.06622522 105.00558783 -91.8125 107.625 C-91.16796875 108.14578125 -90.5234375 108.6665625 -89.859375 109.203125 C-87.21264324 112.33475418 -87.22459076 114.32273096 -87.0625 118.375 C-87.00578125 119.54546875 -86.9490625 120.7159375 -86.890625 121.921875 C-86.86484375 122.81390625 -86.8390625 123.7059375 -86.8125 124.625 C-86.06564941 124.64481934 -85.31879883 124.66463867 -84.54931641 124.68505859 C-81.17834395 124.78008211 -77.80801071 124.88985259 -74.4375 125 C-73.261875 125.0309375 -72.08625 125.061875 -70.875 125.09375 C-69.75351563 125.13242188 -68.63203125 125.17109375 -67.4765625 125.2109375 C-66.43967285 125.2423584 -65.4027832 125.2737793 -64.33447266 125.30615234 C-61.8125 125.625 -61.8125 125.625 -59.8125 127.625 C-59.58544922 130.05517578 -59.58544922 130.05517578 -59.6171875 133.0703125 C-59.62363281 134.14667969 -59.63007812 135.22304687 -59.63671875 136.33203125 C-59.65347656 137.45996094 -59.67023438 138.58789062 -59.6875 139.75 C-59.69652344 140.88566406 -59.70554688 142.02132812 -59.71484375 143.19140625 C-59.73846902 146.00281299 -59.77140987 148.81380298 -59.8125 151.625 C-62.1875 152.25 -62.1875 152.25 -64.8125 152.625 C-66.8125 150.625 -66.8125 150.625 -67.03955078 148.74560547 C-67.02907715 148.00197754 -67.01860352 147.25834961 -67.0078125 146.4921875 C-67.00136719 145.68652344 -66.99492188 144.88085938 -66.98828125 144.05078125 C-66.97152344 143.20902344 -66.95476562 142.36726562 -66.9375 141.5 C-66.92847656 140.65050781 -66.91945312 139.80101562 -66.91015625 138.92578125 C-66.88655647 136.82540116 -66.85068483 134.72516556 -66.8125 132.625 C-67.45276123 132.65118408 -68.09302246 132.67736816 -68.75268555 132.7043457 C-71.66820502 132.80861281 -74.58333198 132.87341753 -77.5 132.9375 C-79.01110352 133.0003418 -79.01110352 133.0003418 -80.55273438 133.06445312 C-87.97530615 133.18693781 -87.97530615 133.18693781 -91.9609375 130.51171875 C-94.09421452 127.18578685 -94.48902448 125.04421139 -94.75 121.125 C-95.13584281 116.63621126 -95.13584281 116.63621126 -97.26171875 112.84375 C-98.76436214 111.75091845 -100.28724622 110.68604611 -101.8125 109.625 C-102.1875 107.0625 -102.1875 107.0625 -101.8125 104.625 C-101.8125 103.305 -101.8125 101.985 -101.8125 100.625 C-101.8125 98.29166667 -101.8125 95.95833333 -101.8125 93.625 C-103.42125 93.25375 -103.42125 93.25375 -105.0625 92.875 C-108.90084559 91.59555147 -110.56652776 90.94903892 -112.8125 87.625 C-113.49656098 82.19900173 -112.48983023 79.40148051 -109.35546875 75.1796875 C-108.65357422 74.28636719 -108.65357422 74.28636719 -107.9375 73.375 C-107.47730469 72.76398438 -107.01710938 72.15296875 -106.54296875 71.5234375 C-105.30809568 69.88409876 -104.06090075 68.25406064 -102.8125 66.625 C-100.62045035 63.33692553 -100.59336696 62.54066917 -100.72265625 58.7578125 C-100.74521484 57.79617187 -100.76777344 56.83453125 -100.79101562 55.84375 C-100.81873047 54.8228125 -100.84644531 53.801875 -100.875 52.75 C-101.05911926 35.20451728 -97.10758268 19.26813392 -84.56640625 6.25 C-62.28565777 -14.3931879 -24.99845592 -18.80153683 0 0 Z " fill="#FAF9FD" transform="translate(172.8125,57.375)"/>
<path d="M0 0 C1.20462891 -0.02126953 1.20462891 -0.02126953 2.43359375 -0.04296875 C4.5625 0.1875 4.5625 0.1875 6.5625 2.1875 C6.6875 5.3125 6.6875 5.3125 6.5625 8.1875 C7.985625 8.125625 7.985625 8.125625 9.4375 8.0625 C12.5625 8.1875 12.5625 8.1875 14.5625 10.1875 C14.86328125 12.28125 14.86328125 12.28125 14.875 14.6875 C14.90013672 15.87859375 14.90013672 15.87859375 14.92578125 17.09375 C14.80589844 17.7846875 14.68601563 18.475625 14.5625 19.1875 C11.33458445 21.3394437 10.27849191 21.38836443 6.5625 21.1875 C6.2325 23.4975 5.9025 25.8075 5.5625 28.1875 C3.93786158 28.24145478 2.31271459 28.28027195 0.6875 28.3125 C-0.66988281 28.34730469 -0.66988281 28.34730469 -2.0546875 28.3828125 C-4.4375 28.1875 -4.4375 28.1875 -6.4375 26.1875 C-6.5625 23.5625 -6.5625 23.5625 -6.4375 21.1875 C-8.7475 20.8575 -11.0575 20.5275 -13.4375 20.1875 C-13.46437279 18.37507948 -13.48383715 16.56254767 -13.5 14.75 C-13.51160156 13.74066406 -13.52320313 12.73132813 -13.53515625 11.69140625 C-13.4375 9.1875 -13.4375 9.1875 -12.4375 8.1875 C-10.43791636 8.14669217 -8.43704746 8.14495644 -6.4375 8.1875 C-6.293125 7.053125 -6.14875 5.91875 -6 4.75 C-5.21675667 -0.21054108 -4.66784792 0.03734278 0 0 Z " fill="#9F85DF" transform="translate(150.4375,80.8125)"/>
<path d="M0 0 C1.65 0 3.3 0 5 0 C5.33 2.31 5.66 4.62 6 7 C8.31 7.33 10.62 7.66 13 8 C13 9.65 13 11.3 13 13 C10.69 13.33 8.38 13.66 6 14 C5.67 15.98 5.34 17.96 5 20 C3.35 20 1.7 20 0 20 C0 17.69 0 15.38 0 13 C-2.31 13 -4.62 13 -7 13 C-7 11.35 -7 9.7 -7 8 C-5.02 7.67 -3.04 7.34 -1 7 C-0.67 4.69 -0.34 2.38 0 0 Z " fill="#FBF9FD" transform="translate(148,85)"/>
</svg>
