<?xml version="1.0" encoding="UTF-8"?>
<svg version="1.1" xmlns="http://www.w3.org/2000/svg" width="256" height="256">
<path d="M0 0 C0.52190918 0.41652832 1.04381836 0.83305664 1.58154297 1.26220703 C27.71865179 22.23169738 45.21271256 51.69277488 49.56640625 85.20703125 C53.12397182 119.58228138 44.88794557 153.6720522 23.4296875 181.0703125 C0.93968564 208.18848194 -29.09745313 226.22650609 -64.62939453 229.81689453 C-100.5399102 232.59062128 -135.11843915 222.46651282 -162.59765625 198.96484375 C-186.15479173 178.19153022 -203.30978186 147.85394954 -205.87109375 116.15771484 C-207.84115191 83.1816277 -201.16577592 50.2214158 -180 24 C-179.58347168 23.47809082 -179.16694336 22.95618164 -178.73779297 22.41845703 C-157.49703178 -4.05677328 -127.8163354 -21.3993921 -93.87890625 -25.56640625 C-60.73852803 -28.87165711 -26.24739189 -21.18674367 0 0 Z " fill="#967ADC" transform="translate(206,26)"/>
<path d="M0 0 C4.95187532 3.61444574 8.76260324 7.60411426 9.7421875 13.8359375 C9.86811133 18.04738994 9.63284268 21.8678183 7.375 25.5 C1.95803487 30.83864756 -1.4884159 32.84825928 -9.140625 32.79296875 C-12.59698834 32.38537873 -14.31163869 31.03723498 -16.625 28.5 C-18.19435594 25.36128812 -17.97701103 22.96144178 -17.625 19.5 C-15.62166503 16.55760176 -14.1988114 14.82149844 -10.6171875 14.08984375 C-7.4937339 13.95729867 -5.27385666 13.96301518 -2.8125 16 C-2.420625 16.495 -2.02875 16.99 -1.625 17.5 C-0.635 17.5 0.355 17.5 1.375 17.5 C1.07549983 14.6048317 0.56565168 13.66176506 -1.6875 11.75 C-5.48126377 10.13563244 -8.56008214 9.89687194 -12.625 10.5 C-16.73246873 12.27367968 -19.32375485 14.66459142 -21.625 18.5 C-22.24995824 24.1246242 -21.78407697 27.64856037 -18.625 32.5 C-14.35680821 36.49282457 -9.64647134 36.86092638 -4 36.77734375 C1.43475814 36.14269272 5.69200002 33.59898244 9.25 29.5 C13.33275774 23.73610672 14.23099334 19.53358381 13.375 12.5 C11.76822342 7.48179136 9.22585908 2.91883158 6.375 -1.5 C18.94646142 -1.5 31.24315177 6.07613919 39.97265625 14.6875 C50.035882 26.46883746 55.27754026 41.29355126 54.62890625 56.83984375 C52.99035978 74.00676912 44.32704678 87.11170772 31.3125 98 C19.11329884 107.30138427 4.36471437 109.71579819 -10.625 108.5 C-26.09327445 105.55785668 -38.76216079 97.01678214 -47.91796875 84.3203125 C-54.59482767 73.98273493 -57.2023427 64.95561923 -57.125 52.6875 C-57.11927979 51.63087158 -57.11355957 50.57424316 -57.10766602 49.4855957 C-56.91760058 41.16815288 -55.73854888 34.83965702 -51.625 27.5 C-51.11710937 26.54222656 -50.60921875 25.58445312 -50.0859375 24.59765625 C-43.03653627 12.41989914 -31.04357767 2.98407954 -17.50463867 -1.14697266 C-10.78193938 -2.86876195 -6.08363898 -3.7004614 0 0 Z " fill="#967BDC" transform="translate(129.625,47.5)"/>
<path d="M0 0 C9.5997641 7.85281056 16.5188825 18.1191475 20.4375 29.875 C22.31220799 30.6075472 22.31220799 30.6075472 24.5625 31.0625 C30.08936982 32.73115558 33.43304143 35.99275482 36.4375 40.875 C38.19199586 47.57491694 37.9913656 53.01710844 34.62890625 59.0859375 C31.91091836 63.16737505 29.31083983 64.67779423 24.5625 65.75 C21.29966586 66.85790264 20.50679169 67.75751909 18.71875 70.7890625 C17.87826459 72.6087927 17.03878042 74.42929428 16.23632812 76.26611328 C14.1548083 80.87165288 11.69067393 84.0174407 8.0625 87.625 C4.50408212 91.07666824 4.50408212 91.07666824 2.96484375 95.6015625 C2.97644531 96.47554688 2.98804688 97.34953125 3 98.25 C3.00390625 100.71484375 3.00390625 100.71484375 2.4375 102.875 C-0.92815526 105.41293534 -4.57468258 106.60484181 -8.5625 107.875 C-10.18805752 108.41629733 -11.8130343 108.95934104 -13.4375 109.50390625 C-14.81240737 109.9612161 -16.18737532 110.41834401 -17.5625 110.875 C-17.56885066 115.12631406 -17.50856657 119.37433096 -17.4375 123.625 C-17.44007813 124.81222656 -17.44265625 125.99945313 -17.4453125 127.22265625 C-17.2731648 135.09841345 -15.83142849 140.54222119 -11.84423828 147.36035156 C-10.5625 149.875 -10.5625 149.875 -10.5625 153.875 C-12.32275391 154.5246582 -12.32275391 154.5246582 -14.5625 154.875 C-16.44677734 153.95385742 -16.44677734 153.95385742 -18.3984375 152.48046875 C-19.12667725 151.94147949 -19.85491699 151.40249023 -20.60522461 150.84716797 C-21.37487549 150.25822754 -22.14452637 149.66928711 -22.9375 149.0625 C-24.55039421 147.86015771 -26.16368033 146.65834098 -27.77734375 145.45703125 C-28.58026855 144.8532666 -29.38319336 144.24950195 -30.21044922 143.62744141 C-34.1614777 140.68365041 -38.19813451 137.86182443 -42.23388672 135.03588867 C-49.26774563 130.05401749 -49.26774563 130.05401749 -50.25 126.125 C-48.84452575 119.48093991 -41.90944281 116.03884817 -36.5625 112.4375 C-35.23300527 111.57737081 -33.90108571 110.7209118 -32.5625 109.875 C-38.50989609 109.36629191 -41.217344 110.45569031 -45.875 114.125 C-46.90238281 114.91390625 -47.92976563 115.7028125 -48.98828125 116.515625 C-52.29574521 119.54704872 -53.40488131 121.39338435 -53.875 125.8125 C-53.45405439 129.93776694 -52.18451222 132.50668268 -48.96411133 135.22338867 C-46.94439519 136.6992848 -44.88992317 138.10652491 -42.8125 139.5 C-41.28710924 140.55244223 -39.76238406 141.60584972 -38.23828125 142.66015625 C-37.46436035 143.19141113 -36.69043945 143.72266602 -35.89306641 144.27001953 C-32.23518883 146.78907329 -28.60803852 149.34767556 -25 151.9375 C-24.3512793 152.39012207 -23.70255859 152.84274414 -23.03417969 153.30908203 C-21.48748567 154.4236985 -20.01610677 155.64144433 -18.5625 156.875 C-18.5625 157.865 -18.5625 158.855 -18.5625 159.875 C-27.85739132 164.15065001 -38.28089175 165.64238064 -48.37890625 163.19140625 C-60.52363244 158.61100091 -68.52319103 151.25661578 -74.484375 139.890625 C-77.06106958 132.68334885 -77.69878455 125.55294293 -77.66015625 117.93359375 C-77.65964264 117.23422699 -77.65912903 116.53486023 -77.65859985 115.81430054 C-77.65279561 112.91649888 -77.64405452 110.02115422 -77.56616211 107.12426758 C-77.3791286 99.36716162 -77.28295791 93.3397034 -82.8671875 87.31640625 C-83.68098877 86.55078369 -84.49479004 85.78516113 -85.33325195 84.99633789 C-88.4185195 82.06041743 -89.82631982 79.21898791 -91.625 75.375 C-92.19347656 74.1890625 -92.76195313 73.003125 -93.34765625 71.78125 C-94.5625 68.875 -94.5625 68.875 -94.5625 66.875 C-95.779375 66.813125 -96.99625 66.75125 -98.25 66.6875 C-102.78570969 66.11953635 -104.64442377 64.44153762 -107.5625 60.875 C-108.305 60.00875 -109.0475 59.1425 -109.8125 58.25 C-113.12635753 53.75262192 -113.05210722 49.2514416 -112.5625 43.875 C-110.77883886 38.52401657 -107.36723849 34.75973472 -102.5625 31.875 C-99.79028911 31.13348205 -97.45835566 30.97660897 -94.5625 30.875 C-94.500625 30.09125 -94.43875 29.3075 -94.375 28.5 C-91.29395839 14.75381437 -80.09640535 3.39623548 -68.5625 -4.125 C-47.10946893 -17.08916613 -20.01790307 -14.41151441 0 0 Z M-80.5625 11.875 C-83.28343855 15.3748739 -85.48706799 18.96117772 -87.5625 22.875 C-88.32433594 24.23431641 -88.32433594 24.23431641 -89.1015625 25.62109375 C-94.77931123 37.56339764 -94.77806826 54.13774282 -91 66.6875 C-83.91139578 83.55689609 -71.46662925 95.13954668 -54.75 102.03515625 C-40.92045276 106.45978818 -25.08518086 104.40552009 -12.09765625 98.2265625 C-9.15166571 96.55874585 -6.3495417 94.79466853 -3.5625 92.875 C-2.510625 92.153125 -1.45875 91.43125 -0.375 90.6875 C10.8687208 79.4437792 18.31034743 65.65144693 18.75 49.5 C18.57942975 34.24343897 13.10795526 20.07273234 2.62890625 8.9375 C-6.38285701 0.45584046 -17.09967939 -5.5120744 -29.5625 -6.125 C-29.22476563 -5.61710937 -28.88703125 -5.10921875 -28.5390625 -4.5859375 C-23.85032981 2.65043029 -21.23898854 9.12361811 -22.5625 17.875 C-25.07600843 23.9406567 -29.10227559 27.95265311 -34.8125 31.125 C-41.60360402 32.97711928 -47.45369921 32.29592844 -53.5625 28.875 C-57.10275204 25.09873115 -58.0225575 21.17590142 -57.984375 16.01171875 C-57.21119404 12.09570039 -54.55605032 9.38783421 -51.5625 6.875 C-47.83743231 5.63331077 -44.43149993 5.33581734 -40.5625 5.875 C-37.0625 7.6875 -37.0625 7.6875 -34.5625 9.875 C-34.5625 10.865 -34.5625 11.855 -34.5625 12.875 C-37.42974686 12.30155063 -38.4239515 12.0135485 -40.5625 9.875 C-45.44083311 9.31519128 -47.47813693 9.12950039 -51.5625 11.9375 C-54.08180235 15.63772533 -54.2691341 17.4781656 -53.5625 21.875 C-51.76687595 24.62829021 -50.50995078 26.40127461 -47.5625 27.875 C-42.57736047 28.42193078 -38.68922659 28.4592286 -34.1875 26.125 C-29.485582 22.09478457 -27.10342491 19.9860293 -26.2890625 13.796875 C-25.99695924 7.55035922 -27.58078715 3.67263761 -31.5625 -1.125 C-33.99858793 -3.50888916 -33.99858793 -3.50888916 -36.5625 -5.125 C-37.490625 -5.74375 -37.490625 -5.74375 -38.4375 -6.375 C-52.33520974 -11.28007403 -71.8511196 2.13324128 -80.5625 11.875 Z " fill="#FBFAFD" transform="translate(165.5625,52.125)"/>
<path d="M0 0 C0.84111328 0.35771484 1.68222656 0.71542969 2.54882812 1.08398438 C3.41314453 1.45716797 4.27746094 1.83035156 5.16796875 2.21484375 C6.49344727 2.78041992 6.49344727 2.78041992 7.84570312 3.35742188 C10.01747999 4.28482929 12.18728242 5.21658009 14.35546875 6.15234375 C14.44350647 9.65218178 14.49620483 13.15173013 14.54296875 16.65234375 C14.56810547 17.63460937 14.59324219 18.616875 14.61914062 19.62890625 C14.72437269 30.15211246 12.14352243 36.21234165 4.8984375 43.87109375 C1.18184338 47.20518126 -2.79587229 49.82779288 -7.64453125 51.15234375 C-15.44269724 50.55992494 -21.46536055 43.72613004 -26.35546875 38.12109375 C-30.91339839 31.15989211 -31.02951435 25.37241505 -30.83203125 17.21484375 C-30.81849609 16.14943359 -30.80496094 15.08402344 -30.79101562 13.98632812 C-30.75587849 11.37446787 -30.70668309 8.76367741 -30.64453125 6.15234375 C-25.82092696 3.68107251 -20.99520033 1.35146494 -15.95703125 -0.66015625 C-14.88066406 -1.09972656 -13.80429688 -1.53929687 -12.6953125 -1.9921875 C-7.96217628 -3.31940495 -4.40787801 -1.88909057 0 0 Z " fill="#FDFDFE" transform="translate(183.64453125,159.84765625)"/>
<path d="M0 0 C5.58404001 1.116808 7.06984146 2.29777804 10.25 6.75 C11.39731956 10.19195867 11.55445631 13.44737256 11 17 C8.75345481 21.40988501 6.47912757 23.87830799 2 26 C1.34 26 0.68 26 0 26 C0 17.42 0 8.84 0 0 Z " fill="#9C82DE" transform="translate(187,88)"/>
<path d="M0 0 C1.65 0 3.3 0 5 0 C5.33 2.97 5.66 5.94 6 9 C8.64 9.33 11.28 9.66 14 10 C14 11.32 14 12.64 14 14 C11.36 14.33 8.72 14.66 6 15 C5.67 17.97 5.34 20.94 5 24 C3.35 24 1.7 24 0 24 C-0.33 21.03 -0.66 18.06 -1 15 C-3.64 14.67 -6.28 14.34 -9 14 C-9 12.68 -9 11.36 -9 10 C-6.36 9.67 -3.72 9.34 -1 9 C-0.67 6.03 -0.34 3.06 0 0 Z " fill="#9B80DD" transform="translate(173,172)"/>
<path d="M0 0 C0.33 8.58 0.66 17.16 1 26 C-3.8808136 24.04767456 -5.83895914 23.03910777 -9 19 C-10.4333234 14.83986623 -10.37213955 11.26873408 -8.75 7.1875 C-4.80392157 0 -4.80392157 0 0 0 Z " fill="#997FDD" transform="translate(68,88)"/>
<path d="M0 0 C2.86724686 0.57344937 3.8614515 0.8614515 6 3 C10.34906427 2.67176873 14.0342632 1.80260764 18 0 C18.75 1.75 18.75 1.75 19 4 C17.35028188 6.62455156 15.9007627 7.7517451 12.90234375 8.578125 C9.03943331 9.17142677 6.68133131 9.30442463 3.0625 7.6875 C1 6 1 6 -1 4 C-0.625 1.875 -0.625 1.875 0 0 Z " fill="#F8F6FC" transform="translate(119,108)"/>
<path d="M0 0 C2.375 1.125 2.375 1.125 4 3 C4.25 6.1875 4.25 6.1875 4 9 C2.68 9 1.36 9 0 9 C-0.33 8.01 -0.66 7.02 -1 6 C-3.01508358 5.26676204 -3.01508358 5.26676204 -5 5 C-5.33 6.32 -5.66 7.64 -6 9 C-7.32 9 -8.64 9 -10 9 C-10.25 6.1875 -10.25 6.1875 -10 3 C-7.08783566 -0.36018962 -4.28391942 -0.53548993 0 0 Z " fill="#F9F7FD" transform="translate(158,92)"/>
<path d="M0 0 C2.375 1.125 2.375 1.125 4 3 C4.25 6.1875 4.25 6.1875 4 9 C2.68 9 1.36 9 0 9 C-0.33 8.01 -0.66 7.02 -1 6 C-3.01508358 5.26676204 -3.01508358 5.26676204 -5 5 C-5.33 6.32 -5.66 7.64 -6 9 C-7.32 9 -8.64 9 -10 9 C-10.25 6.1875 -10.25 6.1875 -10 3 C-7.08783566 -0.36018962 -4.28391942 -0.53548993 0 0 Z " fill="#F9F8FD" transform="translate(104,92)"/>
<path d="M0 0 C3.125 0.375 3.125 0.375 6 1 C6.125 3.375 6.125 3.375 6 6 C5.34 6.66 4.68 7.32 4 8 C1.375 7.625 1.375 7.625 -1 7 C-1.625 4.625 -1.625 4.625 -2 2 C-1.34 1.34 -0.68 0.68 0 0 Z " fill="#9C81DE" transform="translate(122,174)"/>
</svg>
